# xmcd
#
# Track frame offsets:
#	150
#	7560
#	17770
#	43525
#	55195
#	65798
#	81570
#	101710
#	121234
#	133476
#	146698
#	166807
#	178420
#	195579
#	209804
#
# Disc length: 2999 seconds
#
# Revision: 0
# Processed by: cddbd v1.5.2PL0 Copyright (c) Steve Scherf et al.
# Submitted via: audiograbber 1.83.01
#
DISCID=df0bb50f
DTITLE=Sampler - Gospel Greates , Voices From Heaven CD2
DYEAR=1900
DGENRE=Gospel
TTITLE0=103rd Street Gospel Choir - He´s Got The Whole World In His Hands
TTITLE1=Golden Gate Quartet - Mack The Knife
TTITLE2=Harlem Gospel Singers - Imagine
TTITLE3=Oak Ridge Boys - No One Cared So Much
TTITLE4=Harmonizing Four - Where Could I Go
TTITLE5=Mahalia Jackson - Lord, Don´t Move The Mountain
TTITLE6=Golden Gate Quartet - Deep River
TTITLE7=Gospel Gold - Wind Beneath My Wings
TTITLE8=Staple Singers - Will The Circle Be Unbroken
TTITLE9=Golden Gate Quartet - I´m Troubled
TTITLE10=Harlem Gospel Singers - Give A Little Love
TTITLE11=Five Blind Boys Of Mississippi - Do It Right Now
TTITLE12=Clarence Fountain and The Blind Boys - Give God A Chance
TTITLE13=103rd Street Gospel Choir - Humble Me Lord
TTITLE14=Harlem Gospel Singers - Angels Watching Iver Me
EXTD=
EXTT0=
EXTT1=
EXTT2=
EXTT3=
EXTT4=
EXTT5=
EXTT6=
EXTT7=
EXTT8=
EXTT9=
EXTT10=
EXTT11=
EXTT12=
EXTT13=
EXTT14=
PLAYORDER=
